<?xml version="1.0" encoding="UTF-8" standalone="no"?>
<svg
   xmlns:dc="http://purl.org/dc/elements/1.1/"
   xmlns:cc="http://creativecommons.org/ns#"
   xmlns:rdf="http://www.w3.org/1999/02/22-rdf-syntax-ns#"
   xmlns:svg="http://www.w3.org/2000/svg"
   xmlns="http://www.w3.org/2000/svg"
   xmlns:sodipodi="http://sodipodi.sourceforge.net/DTD/sodipodi-0.dtd"
   xmlns:inkscape="http://www.inkscape.org/namespaces/inkscape"
   viewBox="0 0 750 450"
   version="1.1"
   id="svg219"
   sodipodi:docname="Icon_Fahrradtyp_MTB-Hardtail.svg"
   width="750"
   height="450"
   inkscape:version="0.92.5 (2060ec1f9f, 2020-04-08)">
  <metadata
     id="metadata225">
    <rdf:RDF>
      <cc:Work
         rdf:about="">
        <dc:format>image/svg+xml</dc:format>
        <dc:type
           rdf:resource="http://purl.org/dc/dcmitype/StillImage" />
      </cc:Work>
    </rdf:RDF>
  </metadata>
  <defs
     id="defs223" />
  <sodipodi:namedview
     pagecolor="#ffffff"
     bordercolor="#666666"
     borderopacity="1"
     objecttolerance="10"
     gridtolerance="10"
     guidetolerance="10"
     inkscape:pageopacity="0"
     inkscape:pageshadow="2"
     inkscape:window-width="2994"
     inkscape:window-height="1948"
     id="namedview221"
     showgrid="false"
     inkscape:zoom="1.2586667"
     inkscape:cx="304.02582"
     inkscape:cy="124.08518"
     inkscape:window-x="0"
     inkscape:window-y="0"
     inkscape:window-maximized="0"
     inkscape:current-layer="svg219" />
  <title
     id="title211">Icon_Fahrradtyp_</title>
  <rect
     width="750"
     height="450"
     id="rect213"
     x="0"
     y="0"
     style="fill:#ededed;stroke-width:0.77459669" />
  <path
     d="m 228,86.173728 v 0 a 2.66,2.66 0 0 1 2.08,1 l 2.4,3 a 2.68,2.68 0 0 0 2.08,1 h 20.25 a 2.74,2.74 0 0 0 0.9,-0.15 c 2.61,-0.94 16.82,-5.85 28.57,-5.85 h 6.37 a 2.75,2.75 0 0 1 1.2,0.28 l 2.87,1.44 a 2.74,2.74 0 0 0 1.19,0.28 h 9.83 a 2.66,2.66 0 0 0 2.6,-3.27 c -0.43,-1.82 -1.88,-3.73 -6.06,-3.73 -7.71,0 -39.63,0.93 -41.87,1 h -0.25 l -29.89,-1.93 a 2.7,2.7 0 0 0 -1.78,0.53 l -2.14,1.61 a 2.67,2.67 0 0 0 1.65,4.79 z"
     id="path215"
     inkscape:connector-curvature="0"
     style="fill:#303030" />
  <path
     d="m 551,162.17373 a 113.58,113.58 0 0 0 -48.54,10.83 l -20.84,-47.66 0.49,-0.2 a 4,4 0 0 0 2.25,-5.19 L 472.8,90.773728 a 4,4 0 0 0 -5.19,-2.25 l -2.59,1 -1.94,-4.76 21.82,-6 -0.13,-6.79 -38.23,-8.8 a 3.5003143,3.5003143 0 1 0 -1.58,6.82 l 24.71,5.7 -12.24,3.35 -2.32,4.69 3.4,8.35 -1.13,0.45 a 4,4 0 0 0 -2.25,5.2 l 0.2,0.49 -158.68,64.290002 -2.9,-8.89 a 4.93,4.93 0 0 0 -2.3,-2.79 l -20.12,-61.740002 -6.66,2.16 20,61.430002 a 4.93,4.93 0 0 0 -0.44,4 l 5.6,17.21 -20.54,16.67 a 114,114 0 1 0 36.81,106.28 l 20.44,3.07 a 1.87,1.87 0 0 0 0.32,0.08 l 0.22,0.05 a 5.49,5.49 0 0 0 0.9,0.09 5.37,5.37 0 0 0 0.89,-0.09 h 0.2 a 4.37,4.37 0 0 0 0.8,-0.25 l 0.16,-0.07 a 5.07,5.07 0 0 0 0.65,-0.35 l 0.14,-0.09 a 5.56,5.56 0 0 0 0.66,-0.54 l 0.1,-0.12 a 4.72,4.72 0 0 0 0.42,-0.45 v 0 l 0.09,-0.13 0.09,-0.14 0.07,-0.1 0.18,-0.29 86.57,-132.34 c 25.07,-38 41.17,-43.94 45.07,-44.84 l 2.62,6.62 a 4,4 0 0 0 5.2,2.25 l 2.29,-0.91 21.15,48.38 a 114,114 0 1 0 55.67,-14.5 z m -357,208 a 94,94 0 1 1 59.48,-166.73 l -67.19,54.51 -1.29,2.72 v 15 l 3.1,3.48 98.21,14.76 a 94.14,94.14 0 0 1 -92.31,76.26 z m 93.71,-86.6 -95.71,-11 v -10.23 l 66.8,-54.17 a 93.72,93.72 0 0 1 29.2,68 q 0,3.74 -0.29,7.4 z m 19.88,2.28 q 0.41,-4.79 0.41,-9.68 a 113.63,113.63 0 0 0 -33.53,-80.74 l 17.71,-14.37 21.08,64.69 c 0.08,0.26 7.54,22.82 9.35,41.83 z m 24.11,-6.18 a 248.12,248.12 0 0 0 -8.95,-37.05 l -21.5,-66 12.46,-10.24 117.43,-47.54 z m 219.3,90.5 a 94,94 0 0 1 -49.75,-173.72 l 36.22,82.87 11.91,-5.21 -36.63,-83.8 a 94,94 0 1 1 38.25,179.86 z"
     id="path217"
     inkscape:connector-curvature="0"
     style="fill:#303030" />
</svg>
