<?xml version="1.0" encoding="UTF-8" standalone="no"?>
<svg
   xmlns:dc="http://purl.org/dc/elements/1.1/"
   xmlns:cc="http://creativecommons.org/ns#"
   xmlns:rdf="http://www.w3.org/1999/02/22-rdf-syntax-ns#"
   xmlns:svg="http://www.w3.org/2000/svg"
   xmlns="http://www.w3.org/2000/svg"
   xmlns:sodipodi="http://sodipodi.sourceforge.net/DTD/sodipodi-0.dtd"
   xmlns:inkscape="http://www.inkscape.org/namespaces/inkscape"
   viewBox="0 0 750 450"
   version="1.1"
   id="svg3791"
   sodipodi:docname="Icon_Fahrradtyp_Cross-Gravelbike.svg"
   width="750"
   height="450"
   inkscape:version="0.92.5 (2060ec1f9f, 2020-04-08)">
  <metadata
     id="metadata3797">
    <rdf:RDF>
      <cc:Work
         rdf:about="">
        <dc:format>image/svg+xml</dc:format>
        <dc:type
           rdf:resource="http://purl.org/dc/dcmitype/StillImage" />
      </cc:Work>
    </rdf:RDF>
  </metadata>
  <defs
     id="defs3795" />
  <sodipodi:namedview
     pagecolor="#ffffff"
     bordercolor="#666666"
     borderopacity="1"
     objecttolerance="10"
     gridtolerance="10"
     guidetolerance="10"
     inkscape:pageopacity="0"
     inkscape:pageshadow="2"
     inkscape:window-width="2994"
     inkscape:window-height="1948"
     id="namedview3793"
     showgrid="false"
     inkscape:zoom="2.164"
     inkscape:cx="375"
     inkscape:cy="180.91498"
     inkscape:window-x="0"
     inkscape:window-y="0"
     inkscape:window-maximized="0"
     inkscape:current-layer="svg3791" />
  <title
     id="title3783">Icon_Fahrradtyp_Dahon</title>
  <rect
     width="750"
     height="450"
     id="rect3785"
     x="0"
     y="0"
     style="fill:#ededed;stroke-width:0.77459669" />
  <path
     d="m 551.17999,162.02016 a 118.73,118.73 0 0 0 -42.33,6.69 l -6.85,-17.72 a 8.67,8.67 0 0 0 -0.36,-0.83 10.05,10.05 0 0 0 -4.6,-4.56 l -13.32,-40.31 a 1,1 0 0 0 -1.27,-0.63 l -0.95,0.31 -4.61,-14.000004 h 31.76 l -0.3,-3.57 h 0.09 c 1.61,-0.22 3.45,-0.37 5.18,-0.44 1.73,-0.07 3.5,-0.07 5.23,0 a 32,32 0 0 1 9.72,1.82 13.6,13.6 0 0 1 3.73,2.08 7.9,7.9 0 0 1 2.23,2.83 9,9 0 0 1 0.76,3.62 17.22,17.22 0 0 1 -0.45,4.300004 c -1.3,5.58 -5.75,10.25 -11.26,13.78 a 55.7,55.7 0 0 1 -8.9,4.58 c -1.57,0.64 -3.17,1.23 -4.78,1.76 -0.81,0.27 -1.61,0.52 -2.42,0.75 l -1.2,0.33 -1.08,0.26 a 6.42,6.42 0 0 0 -0.63,0.15 6.5118296,6.5118296 0 1 0 3.79,12.46 h 0.15 c 0.65,-0.19 1.07,-0.34 1.58,-0.52 l 1.44,-0.52 c 0.94,-0.35 1.87,-0.72 2.8,-1.11 1.84,-0.77 3.66,-1.61 5.44,-2.51 a 67.4,67.4 0 0 0 10.32,-6.4 43.1,43.1 0 0 0 8.93,-9 28.59,28.59 0 0 0 5.19,-12.26 27.15,27.15 0 0 0 0.15,-6.740004 c 0,-0.08 0,-0.17 0,-0.26 l 5.69,-3.15 v 0.21 l 0.1,0.12 v 0 a 14,14 0 0 1 1.09,2.3 15.48,15.48 0 0 1 0.75,2.46 c 0.09,0.41 0.15,0.82 0.2,1.23 l 0.05,0.620004 v 0.68 c 0,0.93 0,1.9 0.07,2.88 a 21.67,21.67 0 0 0 0.95,6 9.27,9.27 0 0 0 1.6,2.91 c 0.8,0.88 1.7,1.54 2.64,2.61 l 0.44,0.51 a 2.7,2.7 0 1 0 1,-4.26 1.6,1.6 0 0 1 -1.94,-0.63 7.12,7.12 0 0 1 -1.07,-2 17,17 0 0 1 -0.62,-5.17 c 0,-0.91 0.05,-1.83 0.09,-2.78 v -0.73 -0.800004 c 0,-0.53 -0.06,-1.06 -0.12,-1.58 a 23.62,23.62 0 0 0 -1.32,-5.33 l 0.22,-1.52 1.64,-0.91 a 1.51,1.51 0 0 0 0.77,-1.08 l 1.9,-10.61 a 2.78,2.78 0 0 0 -2.7,-3.28 l -5.17,-0.09 a 2.8,2.8 0 0 0 -2.84,2.79 v 6.48 a 3.43,3.43 0 0 1 -2,3.09 l -3.93,1.86 a 16.41,16.41 0 0 0 -4.71,-4.95 21.52,21.52 0 0 0 -6.13,-2.86 39.66,39.66 0 0 0 -12.12,-1.39 c -2,0.05 -3.92,0.2 -5.84,0.42 -1.92,0.22 -3.45,0.47 -5.25,0.84 l -0.19,-2.26 h -34.67 l -0.52,-1.59 a 1,1 0 0 0 -1.27,-0.64 l -7.59,2.5 a 1,1 0 0 0 -0.64,1.27 l 9.09,27.600004 -0.95,0.31 a 1,1 0 0 0 -0.64,1.26 l 0.94,2.85 -174.72,0.94 a 1,1 0 0 1 -1,-0.71 l -0.83,-2.76 h -1.12 l -8.53,-29.150004 c -0.16,-0.51 -3.91,-12.37 -20.81,-12.83 a 1,1 0 0 0 -1,1 v 6 a 1,1 0 0 0 1,1 c 10.47,0.37 13,6.55 13.17,7.08 v 0.06 l 7.85,26.840004 h -4.84 a 1,1 0 0 0 -1,1.25 c 0,0.14 0.07,0.28 0.11,0.42 l 8.14,27 a 3,3 0 0 1 -0.33,2.45 l -23.64,38 a 118.46,118.46 0 0 0 -61.43,-17.1 c -64.77,0 -118.109992,52.49 -118.999992,117.25 a 119,119 0 0 0 235.819992,24.32 l 22.8,2.13 a 8,8 0 0 0 1.82,0.24 h 0.08 a 6.08,6.08 0 0 0 0.61,0 h 0.14 a 6.9,6.9 0 0 0 1.34,-0.26 7.46,7.46 0 0 0 4.68,-4.12 l 132.97,-151.67 a 10.07,10.07 0 0 0 -0.12,9.21 l 8.46,17 a 119,119 0 0 0 -62.62,106.06 c 0.66,64.49 53.34,117.14 117.83,117.76 a 119,119 0 0 0 120.16,-119.9 c -0.49,-64 -52.19,-116.57 -116.17,-118.04 z m -74.38,-33 v 0 a 2.22,2.22 0 0 1 -0.41,2.13 l -127.61,152.34 a 1,1 0 0 1 -1.72,-0.35 l -45.88,-152.14 a 2,2 0 0 1 1.9,-2.58 l 171.59,-0.93 a 2.23,2.23 0 0 1 2.13,1.55 z m -274.45,247.96 a 96,96 0 1 1 49.32,-178.33 l -50.84,81.71 a 3.08,3.08 0 0 0 -0.45,1.62 v 0 a 7.55,7.55 0 0 0 1,3.66 9.85,9.85 0 0 0 2.08,2.56 18.39,18.39 0 0 0 4.65,2.87 44.79,44.79 0 0 0 9.35,2.86 c 0.79,0.15 1.56,0.3 2.4,0.42 l 2.36,0.23 4.51,0.42 9,0.84 36.08,3.36 24.4,2.27 a 96.17,96.17 0 0 1 -93.86,75.51 z m 96,-96 a 95.55,95.55 0 0 1 -0.59,10.62 l -25.25,-1.32 -36.15,-1.88 -9,-0.47 -4.52,-0.24 -2.15,-0.11 c -0.66,-0.07 -1.38,-0.17 -2.07,-0.28 a 38.53,38.53 0 0 1 -8,-2.08 12.66,12.66 0 0 1 -3.12,-1.7 4.21,4.21 0 0 1 -0.82,-0.88 v -0.07 l 52.47,-79 a 95.93,95.93 0 0 1 39.2,77.41 z m -26.56,-96.64 19.32,-29.1 a 1,1 0 0 1 1.79,0.27 l 41.21,136.65 a 1,1 0 0 1 -1,1.28 l -12.33,-0.64 q 0.59,-5.83 0.58,-11.82 a 118.82,118.82 0 0 0 -49.57,-96.64 z m 272,192.53 c -47.79,-2.25 -89.45,-44.26 -91.31,-92.07 a 96.07,96.07 0 0 1 49.82,-88 l 41.85,84.18 a 4,4 0 0 0 5.73,1.52 4.09,4.09 0 0 0 1.42,-4.89 l -34,-87.44 a 96,96 0 1 1 26.53,186.7 z"
     id="path3787"
     inkscape:connector-curvature="0"
     style="fill:#303030" />
  <path
     d="m 246.99999,69.220156 a 6,6 0 0 0 2.93,0.76 h 3 a 6,6 0 0 0 2.6,-0.59 c 4.75,-2.29 22.91,-10.41 41.8,-10.41 22,0 10,-6 10,-6 0,0 -4.5,-4.5 -38.5,-2.5 -34,2 -45,-2 -45,-2 0,0 -31.45,-9.83 23.17,20.74 z"
     id="path3789"
     inkscape:connector-curvature="0"
     style="fill:#303030" />
</svg>
