<?xml version="1.0" encoding="UTF-8" standalone="no"?>
<svg
   xmlns:dc="http://purl.org/dc/elements/1.1/"
   xmlns:cc="http://creativecommons.org/ns#"
   xmlns:rdf="http://www.w3.org/1999/02/22-rdf-syntax-ns#"
   xmlns:svg="http://www.w3.org/2000/svg"
   xmlns="http://www.w3.org/2000/svg"
   xmlns:sodipodi="http://sodipodi.sourceforge.net/DTD/sodipodi-0.dtd"
   xmlns:inkscape="http://www.inkscape.org/namespaces/inkscape"
   viewBox="0 0 750 450"
   version="1.1"
   id="svg282"
   sodipodi:docname="Icon_Fahrradtyp_Rennrad.svg"
   width="750"
   height="450"
   inkscape:version="0.92.5 (2060ec1f9f, 2020-04-08)">
  <metadata
     id="metadata288">
    <rdf:RDF>
      <cc:Work
         rdf:about="">
        <dc:format>image/svg+xml</dc:format>
        <dc:type
           rdf:resource="http://purl.org/dc/dcmitype/StillImage" />
      </cc:Work>
    </rdf:RDF>
  </metadata>
  <defs
     id="defs286" />
  <sodipodi:namedview
     pagecolor="#ffffff"
     bordercolor="#666666"
     borderopacity="1"
     objecttolerance="10"
     gridtolerance="10"
     guidetolerance="10"
     inkscape:pageopacity="0"
     inkscape:pageshadow="2"
     inkscape:window-width="2994"
     inkscape:window-height="1948"
     id="namedview284"
     showgrid="false"
     inkscape:zoom="1.7800235"
     inkscape:cx="392.17331"
     inkscape:cy="164.03613"
     inkscape:window-x="0"
     inkscape:window-y="0"
     inkscape:window-maximized="0"
     inkscape:current-layer="svg282" />
  <title
     id="title276">Icon_Fahrradtyp_</title>
  <rect
     width="750"
     height="450"
     id="rect278"
     x="0"
     y="0"
     style="fill:#ededed;stroke-width:0.77459669" />
  <path
     d="m 549,143.50436 a 118.59,118.59 0 0 0 -40.14,7 l -1.86,-4.91 a 9.39,9.39 0 0 0 -0.56,-3.85 l -21,-57.420001 24.3,-1.73 a 6.41,6.41 0 0 0 3.54,0.28 c 3.58,-0.73 14.9,-1.93 19.87,1.91 1,0.79 2.18,2.07 2.34,5.06 0.91,17.390001 -28.14,27.350001 -28.51,27.470001 a 6.5050826,6.5050826 0 0 0 4,12.38 c 1.59,-0.51 39,-12.86 37.5,-40.530001 a 21.08,21.08 0 0 0 -1.63,-7.19 l 12.34,-6.82 v 0.24 l 0.17,0.35 a 24.5,24.5 0 0 1 2.36,9.37 c 0,0.46 0,1 0,1.52 -0.08,5.63 -0.21,15.050001 7,17.760001 a 1.58,1.58 0 0 0 0.59,0.11 1.68,1.68 0 0 0 0.6,-3.26 c -5,-1.880001 -4.9,-9.520001 -4.83,-14.570001 0,-0.56 0,-1.08 0,-1.56 a 27.35,27.35 0 0 0 -2.53,-10.5 v -1.32 l 1.45,-0.79 2.79,-15.59 a 1.49,1.49 0 0 0 -1.44,-1.76 l -8.92,-0.15 a 1.49,1.49 0 0 0 -0.92,0.3 l -1.24,0.93 a 1.47,1.47 0 0 0 -0.6,1.19 v 9.77 a 2.25,2.25 0 0 1 -1.28,2 l -11.23,5.31 -0.07,-0.06 c -10.57,-8.15 -28.41,-4.76 -30.41,-4.35 a 7.4,7.4 0 0 0 -1.26,0.4 l -34.42,2.01 v 0 a 9.51,9.51 0 0 0 -9.43,12.75 l 4.35,12.47 -173.7,15.470001 -14.37,-50.780001 a 4,4 0 0 0 -2.53,-2.69 l -8.94,-3.13 a 69.15,69.15 0 0 1 14,-1.7 h 6.37 a 2.61,2.61 0 0 1 1.2,0.28 l 2.87,1.43 a 2.61,2.61 0 0 0 1.19,0.29 h 9.83 a 2.66,2.66 0 0 0 2.6,-3.27 c -0.43,-1.83 -1.88,-3.73 -6.06,-3.73 -7.71,0 -39.63,0.93 -41.87,1 h -0.25 l -29.89,-1.93 a 2.7,2.7 0 0 0 -1.78,0.53 l -2.14,1.61 a 2.67,2.67 0 0 0 1.6,4.8 h 0.05 a 2.63,2.63 0 0 1 2.08,1 l 2.4,3 a 2.68,2.68 0 0 0 2.09,1 h 20.24 a 2.51,2.51 0 0 0 0.9,-0.16 l 1.08,-0.38 17.82,6.24 13.39,47.330001 -1.63,0.14 9.95,33.82 -19.62,22.08 a 119,119 0 1 0 40.93,120.33 l 22.74,3.87 a 9.87,9.87 0 0 0 2.53,0.33 h 0.05 a 10,10 0 0 0 7.32,-3.24 l 135.54,-147.76 1.39,4 a 0.88,0.88 0 0 0 -0.27,0.88 c 0.28,1.05 1.35,3.33 5,8.16 0.2,0.27 0.45,0.65 0.74,1.12 a 119,119 0 1 0 56.23,-14.16 z m -269.93,196.07 a 109,109 0 1 1 -8.9,-162.13 l -70.65,79.53 a 7,7 0 0 0 -4.42,5.36 v 0 a 2.5,2.5 0 0 0 -0.09,0.86 7,7 0 0 0 5.82,7.2 l 107,18.22 a 108.18,108.18 0 0 1 -28.76,50.96 z m 0,-154.14 a 108.27,108.27 0 0 1 31.93,77.07 112,112 0 0 1 -0.69,12.33 l -104.22,-17.73 67.91,-76.44 c 1.73,1.53 3.43,3.12 5.07,4.77 z m 1.56,-12.24 17.46,-19.69 36.8,125.12 -0.22,0.32 -14.5,-2.44 a 119.93,119.93 0 0 0 0.83,-14 118.71,118.71 0 0 0 -40.37,-89.31 z m 62.13,96.78 -43.24,-147 173.81,-15.47 5.1,14.58 z m 283.31,69.6 a 109,109 0 1 1 -128.56,-173.2 c 13.14,25.51 43.16,89.84 47.07,98.22 a 0.89,0.89 0 0 0 0.25,0.32 l 0.49,1.15 a 4,4 0 0 0 3.68,2.44 3.93,3.93 0 0 0 1.56,-0.32 4,4 0 0 0 2.12,-5.24 l -1.47,-3.44 -38.73,-99.73 a 109,109 0 0 1 113.59,179.8 z"
     id="path280"
     inkscape:connector-curvature="0"
     style="fill:#303030" />
</svg>
