<?xml version="1.0" encoding="UTF-8" standalone="no"?>
<svg
   xmlns:dc="http://purl.org/dc/elements/1.1/"
   xmlns:cc="http://creativecommons.org/ns#"
   xmlns:rdf="http://www.w3.org/1999/02/22-rdf-syntax-ns#"
   xmlns:svg="http://www.w3.org/2000/svg"
   xmlns="http://www.w3.org/2000/svg"
   xmlns:sodipodi="http://sodipodi.sourceforge.net/DTD/sodipodi-0.dtd"
   xmlns:inkscape="http://www.inkscape.org/namespaces/inkscape"
   viewBox="0 0 750 450"
   version="1.1"
   id="svg77"
   sodipodi:docname="Icon_Fahrradtyp_Damenrad.svg"
   width="750"
   height="450"
   inkscape:version="0.92.5 (2060ec1f9f, 2020-04-08)">
  <metadata
     id="metadata83">
    <rdf:RDF>
      <cc:Work
         rdf:about="">
        <dc:format>image/svg+xml</dc:format>
        <dc:type
           rdf:resource="http://purl.org/dc/dcmitype/StillImage" />
      </cc:Work>
    </rdf:RDF>
  </metadata>
  <defs
     id="defs81" />
  <sodipodi:namedview
     pagecolor="#ffffff"
     bordercolor="#666666"
     borderopacity="1"
     objecttolerance="10"
     gridtolerance="10"
     guidetolerance="10"
     inkscape:pageopacity="0"
     inkscape:pageshadow="2"
     inkscape:window-width="2994"
     inkscape:window-height="1948"
     id="namedview79"
     showgrid="false"
     inkscape:zoom="2.164"
     inkscape:cx="375"
     inkscape:cy="186.46026"
     inkscape:window-x="0"
     inkscape:window-y="0"
     inkscape:window-maximized="0"
     inkscape:current-layer="svg77" />
  <title
     id="title69">Icon_Fahrradtyp_</title>
  <rect
     width="750"
     height="450"
     id="rect71"
     x="0"
     y="0"
     style="fill:#ededed;stroke-width:0.77459669" />
  <path
     d="m 559.93161,166.51941 a 115.42,115.42 0 0 0 -15.42,1 l 5.42,-7 v -1.59 a 121.07,121.07 0 0 0 -40.65,10.59 c -0.71,-2.06 -1.4,-4 -2,-5.94 l 12.56,-8.86 a 1.53,1.53 0 0 0 0.63,-1.23 v -5 h -3 v 4.22 l -11.2,7.91 c -4.06,-12.09 -6.43,-20.07 -6.51,-20.36 a 4.43,4.43 0 0 0 -0.85,-1.59 l -15.48,-40.060002 -3.27,1.260003 -10.51,-27.000003 18.22,-20.95 a 4.5,4.5 0 0 0 -0.36,-6.27 c -0.55,-0.5 -13.67,-12.25 -39.23,-11.18 a 4.5040093,4.5040093 0 0 0 0.38,9 c 14.67,-0.61 24.32,3.49 29.14,6.31 l -16.77,19.29 a 4.49,4.49 0 0 0 -0.79,4.58 l 11.48,29.500002 -3.25,1.25 2.22,5.75 a 4,4 0 0 0 -1.37,1.12 l -127.39,122.59 -32.67,-93 -1.89,0.66 -17.25,-49.130002 a 48.74,48.74 0 0 0 9.81,-3.87 73.47,73.47 0 0 1 29.9,-7 h 0.19 c 0.57,0.11 3.91,0.55 3.91,-4 0,-5 -6,-6 -6,-6 0,0 -3.28,-2.73 -21,1 -13.52,2.85 -22.12,0.86 -25.73,-0.09 -7.27,-1.91 -24.61,-0.91 -24.61,-0.91 a 4,4 0 0 0 -2.83,1.17 l -4.83,5.83 c 0,0 -4,4 2,6 0,0 17,6.28 32.84,7.91 l 17.93,51.000002 -1.88,0.66 4.82,13.73 -24.89,25.84 a 119.28,119.28 0 0 0 -58,-22.5 l 0.22,-1.42 26.68,0.24 12.64,-8.43 a 2.5016994,2.5016994 0 0 0 -2.78,-4.16 l -11.36,7.57 -113.22,-0.94 v 0 a 2.5,2.5 0 0 0 0,5 l 25.3,0.22 -3.5,6.28 h -5.3 v -3.5 a 1,1 0 0 0 -1,-1 h -5.5 a 1,1 0 0 0 -1,1 v 9 a 1,1 0 0 0 1,1 h 5.5 a 1,1 0 0 0 1,-1 v -2.5 h 3.63 l -2.49,4.5 h -5.64 c -6.41,0 -10.66,1.43 -12.61,4.26 a 6.58,6.58 0 0 0 -0.79,5.77 l 0.08,0.18 1.78,3.34 a 120.82,120.82 0 0 0 -35.210002,45.45 l 9.740002,-6.25 v 0 a 114,114 0 1 0 213.18,68.5 l 29.66,2.25 a 6.56,6.56 0 0 0 2.3,3.19 6.52,6.52 0 0 0 9.1,-1.36 l 118.41,-160.03 3.9,10.08 1.34,-0.52 c 2,5.66 5.58,15.77 10.36,28.07 a 122,122 0 0 0 -54.49,138.31 l 2.25,-0.32 4.11,-6.9 a 114,114 0 1 0 110.89,-140.52 z m -86.21,-48.53 2.3,6 -117.09,158.26 -14.51,-41.31 z m -166.49,47.28 43.63,124.25 -22.17,-1.71 c 0.15,-2.4 0.24,-4.81 0.24,-7.24 a 119.8,119.8 0 0 0 -43.62,-92.49 z m -147.3,29.25 21.61,44.33 -8.67,0.19 h -0.17 a 9.85,9.85 0 0 1 -9.5,-5.25 c -2.07,-3.64 -9.65,-17.72 -16.39,-30.3 a 98.43,98.43 0 0 1 13.12,-8.97 z m 2.64,-1.44 a 98.34,98.34 0 0 1 46.36,-11.56 c 2.26,0 4.49,0.08 6.71,0.23 l -8.56,56.54 -22.21,0.47 z m 44,48.24 -2.87,18.92 c -1.63,-0.86 -4.18,-2.26 -7.06,-4 a 18,18 0 0 1 -6.42,-6.37 l -4,-8.13 z m 12,-59.3 a 98.31,98.31 0 0 1 46.39,17 l -58.03,60.3 z m 52,21.21 a 98.87,98.87 0 0 1 37.36,77.29 c 0,1.89 -0.06,3.77 -0.16,5.63 l -66.45,-5.11 -25.65,-3.8 -7.94,-8.66 z m -107.95,-43.96 56.35,0.5 -0.18,1.16 q -4.86,-0.41 -9.86,-0.41 a 119.16,119.16 0 0 0 -53.25,12.5 h -0.68 z m -27.3,22.66 a 3.52,3.52 0 0 1 0.49,-3 c 0.94,-1.34 3.47,-2.93 10.12,-2.93 h 4.06 a 120,120 0 0 0 -13.19,8.68 c -0.79,-1.45 -1.31,-2.42 -1.48,-2.75 z m 73.61,197.59 a 99,99 0 0 1 -64.45,-174.09 c 6.68,12.47 14.09,26.23 16.15,29.83 a 12.83,12.83 0 0 0 11.35,6.81 10,10 0 0 0 1.06,-0.05 l 10,-0.22 4.58,9.39 a 20.72,20.72 0 0 0 7.57,7.62 c 3.46,2.07 6.42,3.66 8,4.47 l -2.71,2.81 -0.06,4.8 11,12 2.07,1.09 27,4 h 0.24 l 66.47,5.11 a 99.15,99.15 0 0 1 -98.27,86.43 z m 351,0 a 99,99 0 0 1 -54,-181.94 c 0.28,0.66 0.55,1.31 0.84,2 17.32,40.67 33.46,68.64 48,83.15 a 4.48,4.48 0 0 0 3.16,1.29 4.23,4.23 0 0 1 2,0 4.5,4.5 0 0 0 3.18,-7.68 c -17.36,-17.36 -34,-54.16 -45.89,-85.12 a 99,99 0 1 1 42.71,188.3 z"
     id="path73"
     inkscape:connector-curvature="0"
     style="fill:#303030" />
  <path
     d="m 512.68161,145.51941 h 4 a 0.76,0.76 0 0 1 0.75,0.75 0.76,0.76 0 0 0 0.75,0.75 h 9.5 a 0.76,0.76 0 0 0 0.75,-0.75 v -10.5 a 0.76,0.76 0 0 0 -0.75,-0.75 h -9.5 a 0.76,0.76 0 0 0 -0.75,0.75 0.76,0.76 0 0 1 -0.75,0.75 h -4 a 0.76,0.76 0 0 0 -0.75,0.75 v 7.5 a 0.76,0.76 0 0 0 0.75,0.75 z"
     id="path75"
     inkscape:connector-curvature="0"
     style="fill:#303030" />
</svg>
